<?xml version="1.0" encoding="us-ascii" standalone="no"?>
<svg xmlns="http://www.w3.org/2000/svg" contentStyleType="text/css" height="622px" preserveAspectRatio="none"
     style="width:603px;height:622px;background:#FFFFFF;" version="1.1" viewBox="0 0 603 622" width="603px"
     zoomAndPan="magnify">
    <defs>
        <filter height="1" id="by61v3qjr4u6u0" width="1" x="0" y="0">
            <feFlood flood-color="#D3D3D3" result="flood"/>
            <feComposite in="SourceGraphic" in2="flood" operator="over"/>
        </filter>
    </defs>
    <g>
        <rect fill="#FFFFFF" height="404.9014" style="stroke:#181818;stroke-width:1.0;" width="10" x="161.5"
              y="116.9121"/>
        <rect fill="#FFFFFF" height="42.291" style="stroke:#181818;stroke-width:1.0;" width="10" x="166.5"
              y="219.4263"/>
        <rect fill="#FFFFFF" height="25" style="stroke:#181818;stroke-width:1.0;" width="10" x="166.5" y="334.2993"/>
        <rect fill="#FFFFFF" height="25" style="stroke:#181818;stroke-width:1.0;" width="10" x="166.5" y="468.8135"/>
        <rect fill="#FFFFFF" height="31.291" style="stroke:#181818;stroke-width:1.0;" width="10" x="547.5"
              y="148.8442"/>
        <rect fill="#FFFFFF" height="31.291" style="stroke:#181818;stroke-width:1.0;" width="10" x="547.5"
              y="398.2314"/>
        <rect fill="none" height="225.0962" style="stroke:#000000;stroke-width:1.5;" width="476.5" x="120.5"
              y="283.7173"/>
        <line style="stroke:#181818;stroke-width:0.5;stroke-dasharray:5.0,5.0;" x1="22" x2="22" y1="83.6211"
              y2="539.8135"/>
        <line style="stroke:#181818;stroke-width:0.5;stroke-dasharray:5.0,5.0;" x1="166.5" x2="166.5" y1="83.6211"
              y2="539.8135"/>
        <line style="stroke:#181818;stroke-width:0.5;stroke-dasharray:5.0,5.0;" x1="552" x2="552" y1="83.6211"
              y2="539.8135"/>
        <text fill="#000000" font-family="sans-serif" font-size="14" lengthAdjust="spacing" textLength="29" x="5"
              y="80.1074">User
        </text>
        <ellipse cx="22.5" cy="13.5" fill="#E2E2F0" rx="8" ry="8" style="stroke:#181818;stroke-width:0.5;"/>
        <path d="M22.5,21.5 L22.5,48.5 M9.5,29.5 L35.5,29.5 M22.5,48.5 L9.5,63.5 M22.5,48.5 L35.5,63.5 " fill="none"
              style="stroke:#181818;stroke-width:0.5;"/>
        <text fill="#000000" font-family="sans-serif" font-size="14" lengthAdjust="spacing" textLength="29" x="5"
              y="553.9209">User
        </text>
        <ellipse cx="22.5" cy="565.9346" fill="#E2E2F0" rx="8" ry="8" style="stroke:#181818;stroke-width:0.5;"/>
        <path d="M22.5,573.9346 L22.5,600.9346 M9.5,581.9346 L35.5,581.9346 M22.5,600.9346 L9.5,615.9346 M22.5,600.9346 L35.5,615.9346 "
              fill="none" style="stroke:#181818;stroke-width:0.5;"/>
        <rect fill="#E2E2F0" height="32.6211" rx="2.5" ry="2.5" style="stroke:#181818;stroke-width:0.5;" width="72"
              x="130.5" y="50"/>
        <text fill="#000000" font-family="sans-serif" font-size="14" lengthAdjust="spacing" textLength="58" x="137.5"
              y="72.1074">Frontend
        </text>
        <rect fill="#E2E2F0" height="32.6211" rx="2.5" ry="2.5" style="stroke:#181818;stroke-width:0.5;" width="72"
              x="130.5" y="538.8135"/>
        <text fill="#000000" font-family="sans-serif" font-size="14" lengthAdjust="spacing" textLength="58" x="137.5"
              y="560.9209">Frontend
        </text>
        <rect fill="#E2E2F0" height="32.6211" rx="2.5" ry="2.5" style="stroke:#181818;stroke-width:0.5;" width="69"
              x="518" y="50"/>
        <text fill="#000000" font-family="sans-serif" font-size="14" lengthAdjust="spacing" textLength="55" x="525"
              y="72.1074">Backend
        </text>
        <rect fill="#E2E2F0" height="32.6211" rx="2.5" ry="2.5" style="stroke:#181818;stroke-width:0.5;" width="69"
              x="518" y="538.8135"/>
        <text fill="#000000" font-family="sans-serif" font-size="14" lengthAdjust="spacing" textLength="55" x="525"
              y="560.9209">Backend
        </text>
        <rect fill="#FFFFFF" height="404.9014" style="stroke:#181818;stroke-width:1.0;" width="10" x="161.5"
              y="116.9121"/>
        <rect fill="#FFFFFF" height="42.291" style="stroke:#181818;stroke-width:1.0;" width="10" x="166.5"
              y="219.4263"/>
        <rect fill="#FFFFFF" height="25" style="stroke:#181818;stroke-width:1.0;" width="10" x="166.5" y="334.2993"/>
        <rect fill="#FFFFFF" height="25" style="stroke:#181818;stroke-width:1.0;" width="10" x="166.5" y="468.8135"/>
        <rect fill="#FFFFFF" height="31.291" style="stroke:#181818;stroke-width:1.0;" width="10" x="547.5"
              y="148.8442"/>
        <rect fill="#FFFFFF" height="31.291" style="stroke:#181818;stroke-width:1.0;" width="10" x="547.5"
              y="398.2314"/>
        <polygon fill="#181818" points="149.5,112.9121,159.5,116.9121,149.5,120.9121,153.5,116.9121"
                 style="stroke:#181818;stroke-width:1.0;"/>
        <line style="stroke:#181818;stroke-width:1.0;" x1="22.5" x2="155.5" y1="116.9121" y2="116.9121"/>
        <text fill="#000000" font-family="sans-serif" font-size="13" lengthAdjust="spacing" textLength="120" x="29.5"
              y="111.6494">open dashboard view
        </text>
        <polygon fill="#181818" points="535.5,144.8442,545.5,148.8442,535.5,152.8442,539.5,148.8442"
                 style="stroke:#181818;stroke-width:1.0;"/>
        <line style="stroke:#181818;stroke-width:1.0;" x1="171.5" x2="541.5" y1="148.8442" y2="148.8442"/>
        <text fill="#000000" font-family="sans-serif" font-size="13" lengthAdjust="spacing" textLength="82" x="178.5"
              y="143.5815">get dashboard
        </text>
        <text fill="#000000" filter="url(#by61v3qjr4u6u0)" font-family="monospace" font-size="13" lengthAdjust="spacing"
              textLength="184" x="264.5" y="142.9404">patients/{id}/dashboard
        </text>
        <polygon fill="#181818" points="182.5,176.1353,172.5,180.1353,182.5,184.1353,178.5,180.1353"
                 style="stroke:#181818;stroke-width:1.0;"/>
        <line style="stroke:#181818;stroke-width:1.0;stroke-dasharray:2.0,2.0;" x1="176.5" x2="551.5" y1="180.1353"
              y2="180.1353"/>
        <text fill="#000000" font-family="sans-serif" font-size="13" lengthAdjust="spacing" textLength="60" x="188.5"
              y="174.8726">dashboard
        </text>
        <line style="stroke:#181818;stroke-width:1.0;" x1="171.5" x2="218.5" y1="206.4263" y2="206.4263"/>
        <line style="stroke:#181818;stroke-width:1.0;" x1="218.5" x2="218.5" y1="206.4263" y2="219.4263"/>
        <line style="stroke:#181818;stroke-width:1.0;" x1="177.5" x2="218.5" y1="219.4263" y2="219.4263"/>
        <polygon fill="#181818" points="187.5,215.4263,177.5,219.4263,187.5,223.4263,183.5,219.4263"
                 style="stroke:#181818;stroke-width:1.0;"/>
        <text fill="#000000" font-family="sans-serif" font-size="13" lengthAdjust="spacing" textLength="91" x="183.5"
              y="201.1636">calculate layout
        </text>
        <line style="stroke:#181818;stroke-width:1.0;stroke-dasharray:2.0,2.0;" x1="176.5" x2="218.5" y1="260.7173"
              y2="260.7173"/>
        <line style="stroke:#181818;stroke-width:1.0;stroke-dasharray:2.0,2.0;" x1="218.5" x2="218.5" y1="260.7173"
              y2="273.7173"/>
        <line style="stroke:#181818;stroke-width:1.0;stroke-dasharray:2.0,2.0;" x1="171.5" x2="218.5" y1="273.7173"
              y2="273.7173"/>
        <polygon fill="#181818" points="181.5,269.7173,171.5,273.7173,181.5,277.7173,177.5,273.7173"
                 style="stroke:#181818;stroke-width:1.0;"/>
        <text fill="#000000" font-family="sans-serif" font-size="13" lengthAdjust="spacing" textLength="35" x="183.5"
              y="255.4546">layout
        </text>
        <path d="M120.5,283.7173 L193.5,283.7173 L193.5,293.0083 L183.5,303.0083 L120.5,303.0083 L120.5,283.7173 "
              fill="#EEEEEE" style="stroke:#000000;stroke-width:1.5;"/>
        <rect fill="none" height="225.0962" style="stroke:#000000;stroke-width:1.5;" width="476.5" x="120.5"
              y="283.7173"/>
        <text fill="#000000" font-family="sans-serif" font-size="13" font-weight="bold" lengthAdjust="spacing"
              textLength="28" x="135.5" y="298.7456">loop
        </text>
        <text fill="#000000" font-family="sans-serif" font-size="11" font-weight="bold" lengthAdjust="spacing"
              textLength="54" x="208.5" y="297.5874">[each tile]
        </text>
        <line style="stroke:#181818;stroke-width:1.0;" x1="171.5" x2="218.5" y1="321.2993" y2="321.2993"/>
        <line style="stroke:#181818;stroke-width:1.0;" x1="218.5" x2="218.5" y1="321.2993" y2="334.2993"/>
        <line style="stroke:#181818;stroke-width:1.0;" x1="177.5" x2="218.5" y1="334.2993" y2="334.2993"/>
        <polygon fill="#181818" points="187.5,330.2993,177.5,334.2993,187.5,338.2993,183.5,334.2993"
                 style="stroke:#181818;stroke-width:1.0;"/>
        <text fill="#000000" font-family="sans-serif" font-size="13" lengthAdjust="spacing" textLength="153" x="183.5"
              y="316.0366">create visualization control
        </text>
        <line style="stroke:#181818;stroke-width:1.0;stroke-dasharray:2.0,2.0;" x1="176.5" x2="218.5" y1="358.2993"
              y2="358.2993"/>
        <line style="stroke:#181818;stroke-width:1.0;stroke-dasharray:2.0,2.0;" x1="218.5" x2="218.5" y1="358.2993"
              y2="371.2993"/>
        <line style="stroke:#181818;stroke-width:1.0;stroke-dasharray:2.0,2.0;" x1="171.5" x2="218.5" y1="371.2993"
              y2="371.2993"/>
        <polygon fill="#181818" points="181.5,367.2993,171.5,371.2993,181.5,375.2993,177.5,371.2993"
                 style="stroke:#181818;stroke-width:1.0;"/>
        <polygon fill="#181818" points="535.5,394.2314,545.5,398.2314,535.5,402.2314,539.5,398.2314"
                 style="stroke:#181818;stroke-width:1.0;"/>
        <line style="stroke:#181818;stroke-width:1.0;" x1="171.5" x2="541.5" y1="398.2314" y2="398.2314"/>
        <text fill="#000000" font-family="sans-serif" font-size="13" lengthAdjust="spacing" textLength="65" x="178.5"
              y="392.9688">get dataset
        </text>
        <text fill="#000000" filter="url(#by61v3qjr4u6u0)" font-family="monospace" font-size="13" lengthAdjust="spacing"
              textLength="288" x="247.5" y="392.3276">patients/{id}/datasets/{type}/{name}
        </text>
        <polygon fill="#181818" points="182.5,425.5225,172.5,429.5225,182.5,433.5225,178.5,429.5225"
                 style="stroke:#181818;stroke-width:1.0;"/>
        <line style="stroke:#181818;stroke-width:1.0;stroke-dasharray:2.0,2.0;" x1="176.5" x2="551.5" y1="429.5225"
              y2="429.5225"/>
        <text fill="#000000" font-family="sans-serif" font-size="13" lengthAdjust="spacing" textLength="43" x="188.5"
              y="424.2598">dataset
        </text>
        <line style="stroke:#181818;stroke-width:1.0;" x1="171.5" x2="218.5" y1="455.8135" y2="455.8135"/>
        <line style="stroke:#181818;stroke-width:1.0;" x1="218.5" x2="218.5" y1="455.8135" y2="468.8135"/>
        <line style="stroke:#181818;stroke-width:1.0;" x1="177.5" x2="218.5" y1="468.8135" y2="468.8135"/>
        <polygon fill="#181818" points="187.5,464.8135,177.5,468.8135,187.5,472.8135,183.5,468.8135"
                 style="stroke:#181818;stroke-width:1.0;"/>
        <text fill="#000000" font-family="sans-serif" font-size="13" lengthAdjust="spacing" textLength="139" x="183.5"
              y="450.5508">set data for visualization
        </text>
        <line style="stroke:#181818;stroke-width:1.0;stroke-dasharray:2.0,2.0;" x1="176.5" x2="218.5" y1="492.8135"
              y2="492.8135"/>
        <line style="stroke:#181818;stroke-width:1.0;stroke-dasharray:2.0,2.0;" x1="218.5" x2="218.5" y1="492.8135"
              y2="505.8135"/>
        <line style="stroke:#181818;stroke-width:1.0;stroke-dasharray:2.0,2.0;" x1="171.5" x2="218.5" y1="505.8135"
              y2="505.8135"/>
        <polygon fill="#181818" points="181.5,501.8135,171.5,505.8135,181.5,509.8135,177.5,505.8135"
                 style="stroke:#181818;stroke-width:1.0;"/>
        <polygon fill="#181818" points="33.5,517.8135,23.5,521.8135,33.5,525.8135,29.5,521.8135"
                 style="stroke:#181818;stroke-width:1.0;"/>
        <line style="stroke:#181818;stroke-width:1.0;stroke-dasharray:2.0,2.0;" x1="27.5" x2="165.5" y1="521.8135"
              y2="521.8135"/><!--SRC=[XPB1RiCW38RlF8N5lSgzcdhOOM-m1t29cw0nZC1aoggy-o1DesIhrbp0zkVV-5Sm2wCHEw0Gi5Ug11n1loUA6Z11BXSLC8erDg0Nq6-HlP1lv_9b2VR8AvgFEt6-tPMgId0uhIrm10xaeSNKdnbZ2uEbBmNbMv62B_s5xaWsy4ij79tjUkaYZYUj0uebBwcvsdPgLbBhMJEIvBYPzcVGvbq6dSckMk9mv2nRWKt6CGSWD3s8TJId_XEDL1K7cp8w-rqUonvCAKTsQ-zjo4EftqO8fd8-js7cIYHZeAcvUloaQV5avylCFLiYBQFXKlwItIgFLgWzrIIrv7u0]-->
    </g>
</svg>
